<svg xmlns="http://www.w3.org/2000/svg" version="1.0" preserveAspectRatio="xMidYMid meet" viewBox="29.93 199.68 432.07 99.32"><g transform="translate(0.000000,500.000000) scale(0.100000,-0.100000)" fill="#000000" stroke="none"><path d="M304 3001 c-9 -10 -4 -351 6 -351 6 0 10 63 10 170 l0 170 1080 0 1080 0 0 -171 c0 -111 3 -168 10 -164 6 4 10 73 10 176 l0 169 -112 1 c-656 3 -2081 3 -2084 0z"></path><path d="M2715 2790 c-1 -3 0 -136 3 -295 l5 -291 183 1 c183 0 184 0 184 22 0 22 -4 22 -112 25 l-113 3 1 267 1 267 -75 3 c-41 2 -75 1 -77 -2z"></path><path d="M964 2766 c-3 -14 -3 -29 0 -35 10 -15 -5 -41 -24 -41 -10 0 -20 -7 -24 -15 -8 -23 4 -45 26 -45 19 0 20 -6 16 -198 -4 -232 -3 -232 76 -232 59 0 79 10 74 36 -2 14 -13 20 -40 22 -65 6 -68 16 -61 205 l6 167 44 0 c42 0 44 1 41 28 -3 24 -7 27 -46 30 l-44 3 4 47 c3 42 1 47 -19 50 -17 3 -24 -3 -29 -22z"></path><path d="M3253 2699 c-96 -29 -146 -181 -112 -341 28 -132 93 -184 202 -164 151 28 195 396 60 491 -26 19 -110 26 -150 14z m85 -185 c31 -21 32 -114 2 -144 -24 -24 -38 -25 -62 -3 -26 24 -25 116 2 143 24 24 29 24 58 4z"></path><path d="M3675 2696 c-84 -38 -119 -111 -119 -241 1 -149 52 -244 140 -261 80 -15 139 19 181 104 25 52 28 67 28 167 0 99 -3 115 -25 154 -14 24 -36 53 -50 63 -34 25 -116 32 -155 14z m89 -182 c25 -24 30 -64 15 -107 -26 -73 -76 -76 -91 -6 -19 87 30 160 76 113z"></path><path d="M4000 2460 l0 -250 25 0 25 0 0 200 0 200 41 21 c27 13 60 20 96 20 89 0 88 3 85 -236 l-2 -205 40 0 40 0 0 199 0 200 28 19 c26 19 56 25 115 23 19 -1 33 -10 47 -33 18 -30 20 -51 20 -205 0 -94 3 -178 6 -187 3 -9 17 -16 30 -16 l24 0 0 183 c0 100 -5 198 -10 218 -5 19 -24 48 -41 65 -27 26 -37 29 -92 29 -47 0 -72 -6 -104 -24 l-41 -24 -35 22 c-52 32 -120 37 -189 14 -54 -19 -57 -19 -61 -1 -3 10 -14 18 -26 18 -21 0 -21 -3 -21 -250z"></path><path d="M633 2688 c-17 -6 -46 -26 -64 -44 -27 -28 -33 -41 -33 -82 -1 -62 16 -93 66 -123 75 -45 109 -81 110 -118 1 -45 -24 -64 -75 -58 -21 3 -47 13 -58 23 -18 16 -20 16 -38 -7 -18 -22 -18 -25 -3 -43 31 -34 69 -46 144 -46 129 0 183 46 183 155 0 79 -19 108 -101 152 -39 21 -63 41 -70 60 -15 36 -2 73 26 73 25 0 72 -23 89 -44 18 -22 26 -20 46 10 16 25 16 27 -10 54 -44 46 -136 62 -212 38z"></path><path d="M1271 2683 c-99 -49 -138 -221 -85 -379 29 -88 100 -134 182 -119 54 10 79 32 111 96 53 106 50 284 -6 357 -45 60 -132 79 -202 45z m117 -207 c24 -73 -18 -153 -68 -126 -36 19 -38 121 -3 156 26 26 57 13 71 -30z"></path><path d="M1781 2680 c-52 -24 -51 -24 -51 -5 0 20 -109 22 -114 3 -3 -7 -7 -118 -10 -245 l-6 -233 70 0 70 0 0 169 0 168 63 13 c94 18 89 14 82 67 -13 94 -23 100 -104 63z"></path><path d="M1920 2667 c0 -29 60 -259 108 -413 8 -24 5 -47 -14 -104 -13 -41 -21 -76 -19 -78 10 -11 125 -9 134 2 5 6 29 92 54 191 25 99 60 225 77 280 51 161 53 147 -20 143 l-62 -3 -25 -95 c-54 -207 -50 -197 -57 -170 -3 14 -13 66 -21 115 -9 50 -21 105 -26 123 -10 31 -12 32 -70 32 -55 0 -59 -2 -59 -23z"></path><path d="M300 2185 l0 -175 1100 0 1100 0 0 169 c0 103 -4 172 -10 176 -7 4 -10 -53 -10 -164 l0 -171 -1080 0 -1080 0 0 170 c0 107 -4 170 -10 170 -6 0 -10 -65 -10 -175z"></path></g></svg>